<svg version="1.2" xmlns="http://www.w3.org/2000/svg" viewBox="0 0 512 435" width="512" height="435">
	<title>vegan(1)</title>
	<style>
		tspan { white-space:pre } 
		.s0 { fill: #ff9800 } 
	</style>
	<path id="Path 0" fill-rule="evenodd" class="s0" d="m36 1.2c5.8-0.1 18.4 0.3 28 0.8 9.6 0.5 21.1 1.4 25.5 2 4.4 0.6 13.4 2 20 3.1 6.6 1.1 16.7 3.2 22.5 4.5 5.8 1.4 15.7 4.1 22 6.1 6.3 2 15.3 5.2 20 7.1 4.7 1.9 13.4 5.9 19.5 8.9 6.1 3 14.4 7.6 18.5 10.1 4.1 2.5 11.8 7.8 17 11.8 5.2 3.9 13.9 11.6 19.4 17 5.4 5.4 12.9 13.9 16.6 18.9 3.7 5 9.2 13 12.2 18 3.1 5 7.4 12.7 9.7 17.3 2.2 4.5 6 12.8 8.2 18.4 2.3 5.7 5.6 15 7.4 20.8 1.9 5.8 4.5 15 5.9 20.5 1.3 5.5 3.4 15.2 4.5 21.5 1.1 6.3 2.8 17.3 3.6 24.5 0.9 7.2 1.9 24.3 2.2 38 0.6 21 0.4 25.1-0.8 25.9-1 0.6-19.9-17.7-75.9-73.7-41-41-75.5-75-76.8-75.6-1.2-0.6-3.8-1.1-5.7-1.1-1.9 0-4.5 0.5-5.7 1.1-1.3 0.6-3.6 2.3-5.1 3.8-1.5 1.4-3.2 4.3-3.7 6.3-0.7 2.5-0.6 5.1 0 7.6 0.8 3.1 13.5 16.2 76.2 79 59.8 59.7 75 75.4 73.8 76.2-0.8 0.5-6.2 1-12 1-5.8 0-18.4-0.5-28-1-9.6-0.5-21.3-1.5-26-2.1-4.7-0.5-13.7-1.9-20-3-6.3-1.1-16.2-3.2-22-4.5-5.8-1.4-15-3.9-20.5-5.6-5.5-1.7-13.4-4.4-17.5-6-4.1-1.6-12.9-5.4-19.5-8.5-6.6-3.1-16-8.1-21-11.2-4.9-3-13.3-8.7-18.5-12.6-5.2-3.8-13.9-11.5-19.4-17-5.5-5.5-13.2-14.3-17.1-19.5-3.9-5.2-9.3-13.3-12.2-18-2.8-4.7-7.2-12.7-9.7-17.8-2.5-5-6.3-13.6-8.5-19-2.1-5.3-5.1-13.5-6.6-18.2-1.4-4.7-4-13.9-5.7-20.5-1.6-6.6-3.8-16.7-4.8-22.5-1.1-5.8-2.7-16.1-3.6-23-1-7.9-1.8-23.1-2.1-41.5-0.4-20.1-0.2-30.5 0.6-34 0.7-2.8 2-5.9 2.9-7.1 0.9-1.1 3.1-2.9 4.7-3.9 1.8-1.2 5.7-2.2 10-2.6 3.9-0.3 11.7-0.7 17.5-0.7zm443 95.2c20.2 0.1 21.7 0.2 25 2.3 1.9 1.2 4.4 3.7 5.5 5.5 1.9 3.1 2 5 1.9 28.8 0 21.7-0.3 27.4-2.2 38.5-1.3 7.1-3.4 17.3-4.7 22.5-1.3 5.2-3.8 13.6-5.5 18.5-1.8 4.9-5.4 13.5-8 19-2.7 5.5-7.7 14.3-11.2 19.5-3.7 5.6-10.6 13.9-16.8 20.1-6.4 6.5-14.2 13-20 16.8-5.2 3.5-14 8.5-19.5 11.2-5.5 2.6-15.2 6.6-21.5 8.7-6.3 2.2-15.8 4.9-21 6.1-5.2 1.1-13.8 2.8-19 3.6-5.2 0.8-10.7 1.5-12.2 1.5-2.6 0-2.8-0.3-2.3-3.3 0.3-1.7 0.9-10.6 2.4-36.2l31.5-31.5c17.3-17.3 32-32.7 32.5-34.3 0.6-1.5 1.1-4.2 1.1-6-0.1-1.7-1-4.8-2-6.7-1.1-1.9-3.7-4.5-5.8-5.7-2-1.2-5.2-2.2-6.9-2.3-1.8 0-4.8 0.7-6.5 1.6-1.8 0.9-12.8 11.1-24.5 22.7-19.3 19.3-21.2 21-21.7 18.7-0.3-1.4-1.2-8.1-2.1-15-0.9-6.9-2.9-19-4.5-27-1.6-8-4.5-20.1-6.6-27-2-6.9-3.8-13.2-4.1-14-0.3-0.9 2.4-4.3 7.1-8.8 4.2-3.9 10.9-9.6 14.9-12.5 3.9-3 10.1-7.1 13.7-9.1 3.6-2.1 9.4-5.2 13-6.8 3.6-1.6 10.1-4.3 14.5-6 4.4-1.6 13.9-4.5 21-6.3 7.1-1.8 18.4-4 25-4.9 6.6-0.9 13.4-1.8 15-2 1.6-0.2 12.7-0.3 24.5-0.2zm-183.5 257.7c3 0 6.8 0.8 9.5 2 2.5 1.1 5.5 2.9 9 5.9l2-3c1.3-2 2.8-3 7-3l-0.3 25.8c-0.2 23.8-0.4 26-2.3 30.2-1.2 2.5-3.7 6-5.5 7.9-1.9 1.9-5.6 4.5-8.4 5.7-3.6 1.7-6.8 2.4-17.5 2.4v-14h5.3c2.8 0 6.3-0.6 7.6-1.3 1.3-0.6 3.1-2.3 4-3.6 1.6-2.3 1.6-2.3-1.1-1.2-1.6 0.6-5.6 1.1-9 1.1-3.5-0.1-7.9-0.6-9.8-1.3-2-0.7-5.1-2.4-7-3.8-2-1.5-4.9-5.2-6.8-9-2.6-5.1-3.2-7.6-3.2-12.4 0-3.3 0.6-8 1.5-10.5 0.8-2.5 3.2-6.5 5.2-8.9 2.1-2.4 5.1-5.1 6.6-5.9 1.5-0.8 4-1.8 5.5-2.3 1.5-0.4 5-0.8 7.7-0.8zm-11.4 22.4q-1.4 4-0.6 8c0.5 2.6 1.9 5.1 4.1 7.3 2.6 2.4 4.3 3.2 7.2 3.2 2 0 4.8-0.6 6.2-1.3 1.3-0.6 3.5-2.8 4.7-4.7 1.5-2.2 2.3-4.9 2.3-7.5 0-2.2-0.9-5.5-2-7.2-1.1-1.8-3.4-4-5-4.8-1.6-0.8-4.3-1.5-5.8-1.5-1.6 0-4.4 1-6.3 2.3-2.1 1.4-3.9 3.8-4.8 6.2zm-266-38.6l15.3 0.6 25.1 43 0.4-43.5h15.1v70h-16l-25.5-43.9-0.5 43.9h-14zm89.7 16.2c2.9-0.1 7.5 0.7 10.5 1.8 3.2 1.2 6.5 3.4 8.6 5.8 1.9 2.1 4.3 5.8 5.4 8.3 1.2 2.7 2 6.8 2 10.5 0.1 3.3-0.4 7.8-1.1 10-0.6 2.2-2.6 6-4.4 8.5-2.2 2.8-5.4 5.5-8.8 7.2-4.2 2.2-6.9 2.8-11.5 2.8-3.3 0-7.8-0.6-10-1.2-2.4-0.8-6-3.3-9.1-6.3-4-3.9-5.5-6.3-6.9-11-1.1-4-1.6-7.9-1.2-11.5 0.2-3 1.5-7.5 2.7-10 1.2-2.5 3.4-5.8 4.9-7.4 1.4-1.5 3.9-3.5 5.4-4.4 1.6-0.8 4-1.9 5.5-2.3 1.5-0.4 5.1-0.8 8-0.8zm-9.9 19.1c-0.9 1.3-2 3.9-2.4 5.8-0.4 1.9-0.2 5.1 0.3 7 0.6 1.9 2.5 4.7 4.2 6.2 2.2 2.1 4.1 2.8 7 2.8 2.2 0 5.4-0.7 7-1.5 1.7-0.8 3.7-2.9 4.5-4.5 0.8-1.7 1.5-5.3 1.5-8 0-4.3-0.5-5.6-3.2-8.6-2.6-2.9-4.2-3.7-7.8-4-2.9-0.3-5.4 0.1-7 1-1.4 0.8-3.2 2.5-4.1 3.8zm145.9-19.1c3-0.1 7.4 0.7 10.5 1.9 2.9 1.1 6.7 3.5 8.5 5.3 1.8 1.7 3.2 3.5 3.2 3.9 0 0.4-4.6 6.3-10.2 13-5.5 6.8-11.1 13.4-14.3 17.1l4.5-0.6c3.5-0.5 5.2-1.4 10.2-7.2l10.3 10.4-3 3.2c-1.6 1.7-5.2 4.2-8 5.5-3.6 1.7-6.8 2.4-11.5 2.4-5.1 0-7.6-0.6-11.9-2.8-3-1.5-6.5-4.1-7.9-5.7-1.4-1.7-3.4-5-4.5-7.5-1.4-3.1-2.1-6.7-2.1-11.5 0-5.6 0.5-8.2 2.6-12.5 1.4-3 4.3-7 6.5-8.8 2.1-1.8 5.6-3.9 7.8-4.6 2.2-0.8 6.4-1.5 9.3-1.5zm-9.3 18.8c-2 2.5-2.5 4.2-2.5 8.6 0 3 0.2 5.5 0.5 5.5 0.3 0 3.3-3.7 6.7-8.3 3.4-4.5 6.5-8.8 6.8-9.5 0.5-0.8-0.1-1.2-1.9-1.2-1.4 0.1-3.6 0.5-4.8 1-1.2 0.4-3.4 2.2-4.8 3.9zm120.5-18.9c2.5 0 6.1 0.5 8 1.1 1.9 0.7 5.3 2.4 11.3 6.4l2.1-2.8c1.2-1.5 3.1-2.7 6.6-2.7v52h-2.5c-1.4 0-2.9-0.8-3.5-1.8-0.5-0.9-1.3-2.3-1.7-3-0.6-1.1-2-0.6-6.3 1.9-4.5 2.8-6.7 3.4-12.5 3.7-4.6 0.2-8.3-0.2-11-1.2-2.2-0.8-5.8-3.2-8-5.3-2.6-2.4-4.9-6-6.3-9.6-1.2-3.1-2.2-7.9-2.2-10.5 0-2.6 0.4-6.3 1-8.2 0.5-1.9 2.4-5.7 4.2-8.4 1.8-2.8 4.4-5.8 5.8-6.8 1.4-1 4.3-2.5 6.5-3.3 2.2-0.8 6-1.5 8.5-1.5zm-10.3 22c-1.3 3.1-1.6 5.6-1.2 8 0.4 1.9 1.3 4.5 2.1 5.7 0.8 1.3 2.9 3 4.7 3.9 2.2 1.1 4.5 1.4 7.2 1 2.5-0.3 5.1-1.6 6.8-3.3 1.5-1.6 3.2-4.4 3.7-6.3 0.5-1.9 0.5-4.6 0.1-6-0.4-1.4-1.3-3.5-1.9-4.8-0.7-1.2-2.6-3.1-4.4-4.2-1.8-1.1-4.6-2-6.3-2-1.6 0-4.3 0.8-6 1.8-1.8 1.1-3.7 3.6-4.8 6.2zm127.3-21.9c4.1-0.1 7.1 0.6 11.5 2.7 3.7 1.8 7.1 4.3 8.8 6.5 1.5 2 3.4 5.6 4.2 7.9 0.9 2.4 1.6 7.2 1.6 10.8 0 5.1-0.7 7.7-3 12.5-1.8 3.6-4.4 7.1-6.7 8.9-2.2 1.6-5.5 3.6-7.4 4.4-2.4 1-5.9 1.3-11 1-4.1-0.3-8.8-1.2-10.5-2.1-1.6-0.8-4.5-3-6.4-4.9-1.8-1.8-4.2-5.1-5.4-7.3-1.1-2.3-2.2-6.9-2.5-10.5-0.3-4.7 0-8 1.4-12 1-3 3.4-7.3 5.4-9.4 1.9-2.1 4.8-4.5 6.3-5.4 1.6-0.8 4-1.9 5.5-2.3 1.5-0.4 5.2-0.8 8.2-0.8zm-11.5 21.4c-0.8 1.9-1.5 4.8-1.5 6.5 0 1.6 0.7 4.3 1.5 6 0.8 1.6 2.8 3.9 4.3 5 1.8 1.4 4.2 2 7.1 2 3.7 0 4.9-0.6 8.5-4.1 4.1-4.1 4.1-4.2 3.6-10-0.4-4.8-1-6.4-3.5-8.9-2.2-2.3-4.2-3.3-7.5-3.6-3.4-0.4-5.3 0-7.7 1.5-1.8 1.2-4 3.7-4.8 5.6zm-45-20.5c2.8 0 7 0.9 9.5 2.1 2.5 1.1 5.6 3 6.9 4.2 1.3 1.2 3.4 4.4 4.7 7.2 2.2 4.6 2.4 6.2 2.4 39.5h-14v-33l-3-3c-1.7-1.7-4-3-5.5-3-1.4 0-3.7 0.5-5.1 1.2-1.4 0.7-3.2 2.5-4 4-1 2-1.4 7.1-1.4 33.8h-14v-26c0-24.1 0.1-26 1.8-26 0.9 0 2.7 0.9 4 2 2.2 2 2.2 2 7.5-0.5q5.2-2.5 10.2-2.5zm-235.5 1l3 9.2c1.7 5.1 4.1 12.1 7.5 21.9l11-31.1h7.8c4.2 0 7.7 0.3 7.7 0.7 0 0.4-4.4 12.2-19.5 51.3h-14l-9.6-25.2c-5.3-13.9-9.5-25.7-9.2-26.1 0.2-0.4 3.8-0.7 15.3-0.7z"/>
</svg>