<svg version="1.2" xmlns="http://www.w3.org/2000/svg" viewBox="0 0 512 435" width="512" height="435">
	<title>vegan(1)</title>
	<style>
		tspan { white-space:pre } 
		.s0 { fill: #79d673 } 
	</style>
	<path id="Path 0" fill-rule="evenodd" class="s0" d="m36 1.2c5.8-0.1 18.4 0.3 28 0.8 9.6 0.5 21.1 1.4 25.5 2 4.4 0.6 13.4 2 20 3.1 6.6 1.1 16.7 3.2 22.5 4.5 5.8 1.4 15.7 4.1 22 6.1 6.3 2 15.3 5.2 20 7.1 4.7 1.9 13.4 5.9 19.5 8.9 6.1 3 14.4 7.6 18.5 10.1 4.1 2.5 11.8 7.8 17 11.8 5.2 3.9 13.9 11.6 19.4 17 5.4 5.4 12.9 13.9 16.6 18.9 3.7 5 9.2 13 12.2 18 3.1 5 7.4 12.7 9.7 17.3 2.2 4.5 6 12.8 8.2 18.4 2.3 5.7 5.6 15 7.4 20.8 1.9 5.8 4.5 15 5.9 20.5 1.3 5.5 3.4 15.2 4.5 21.5 1.1 6.3 2.8 17.3 3.6 24.5 0.9 7.2 1.9 24.3 2.2 38 0.6 21 0.4 25.1-0.8 25.9-1 0.6-19.9-17.7-75.9-73.7-41-41-75.5-75-76.8-75.6-1.2-0.6-3.8-1.1-5.7-1.1-1.9 0-4.5 0.5-5.7 1.1-1.3 0.6-3.6 2.3-5.1 3.8-1.5 1.4-3.2 4.3-3.7 6.3-0.7 2.5-0.6 5.1 0 7.6 0.8 3.1 13.5 16.2 76.2 79 59.8 59.7 75 75.4 73.8 76.2-0.8 0.5-6.2 1-12 1-5.8 0-18.4-0.5-28-1-9.6-0.5-21.3-1.5-26-2.1-4.7-0.5-13.7-1.9-20-3-6.3-1.1-16.2-3.2-22-4.5-5.8-1.4-15-3.9-20.5-5.6-5.5-1.7-13.4-4.4-17.5-6-4.1-1.6-12.9-5.4-19.5-8.5-6.6-3.1-16-8.1-21-11.2-4.9-3-13.3-8.7-18.5-12.6-5.2-3.8-13.9-11.5-19.4-17-5.5-5.5-13.2-14.3-17.1-19.5-3.9-5.2-9.3-13.3-12.2-18-2.8-4.7-7.2-12.7-9.7-17.8-2.5-5-6.3-13.6-8.5-19-2.1-5.3-5.1-13.5-6.6-18.2-1.4-4.7-4-13.9-5.7-20.5-1.6-6.6-3.8-16.7-4.8-22.5-1.1-5.8-2.7-16.1-3.6-23-1-7.9-1.8-23.1-2.1-41.5-0.4-20.1-0.2-30.5 0.6-34 0.7-2.8 2-5.9 2.9-7.1 0.9-1.1 3.1-2.9 4.7-3.9 1.8-1.2 5.7-2.2 10-2.6 3.9-0.3 11.7-0.7 17.5-0.7zm443 95.2c20.2 0.1 21.7 0.2 25 2.3 1.9 1.2 4.4 3.7 5.5 5.5 1.9 3.1 2 5 1.9 28.8 0 21.7-0.3 27.4-2.2 38.5-1.3 7.1-3.4 17.3-4.7 22.5-1.3 5.2-3.8 13.6-5.5 18.5-1.8 4.9-5.4 13.5-8 19-2.7 5.5-7.7 14.3-11.2 19.5-3.7 5.6-10.6 13.9-16.8 20.1-6.4 6.5-14.2 13-20 16.8-5.2 3.5-14 8.5-19.5 11.2-5.5 2.6-15.2 6.6-21.5 8.7-6.3 2.2-15.8 4.9-21 6.1-5.2 1.1-13.8 2.8-19 3.6-5.2 0.8-10.7 1.5-12.2 1.5-2.6 0-2.8-0.3-2.3-3.3 0.3-1.7 0.9-10.6 2.4-36.2l31.5-31.5c17.3-17.3 32-32.7 32.5-34.3 0.6-1.5 1.1-4.2 1.1-6-0.1-1.7-1-4.8-2-6.7-1.1-1.9-3.7-4.5-5.8-5.7-2-1.2-5.2-2.2-6.9-2.3-1.8 0-4.8 0.7-6.5 1.6-1.8 0.9-12.8 11.1-24.5 22.7-19.3 19.3-21.2 21-21.7 18.7-0.3-1.4-1.2-8.1-2.1-15-0.9-6.9-2.9-19-4.5-27-1.6-8-4.5-20.1-6.6-27-2-6.9-3.8-13.2-4.1-14-0.3-0.9 2.4-4.3 7.1-8.8 4.2-3.9 10.9-9.6 14.9-12.5 3.9-3 10.1-7.1 13.7-9.1 3.6-2.1 9.4-5.2 13-6.8 3.6-1.6 10.1-4.3 14.5-6 4.4-1.6 13.9-4.5 21-6.3 7.1-1.8 18.4-4 25-4.9 6.6-0.9 13.4-1.8 15-2 1.6-0.2 12.7-0.3 24.5-0.2zm-258.5 257.7c2.8 0 6.6 0.5 8.5 1.2 2 0.7 5.1 2.4 10.5 6.6l2.3-3c1.2-1.6 3.1-2.9 4.2-2.9 1.9 0 2 0.7 2 25.8 0 23.7-0.2 26.1-2.1 30.2-1.1 2.5-3.5 6-5.2 7.8-1.8 1.9-5 4.3-7.2 5.5-2.5 1.3-6.8 2.2-19.5 3.2v-14.5h5.5c3 0 6.7-0.6 8.1-1.2 1.4-0.7 3.3-2.4 4.2-3.8 1.6-2.4 1.6-2.5-0.3-1.6-1.1 0.6-5.2 1.2-9 1.4-5.1 0.2-8.3-0.2-11.5-1.4-2.5-1-6-3.2-7.9-4.9-1.9-1.6-4.5-5.2-5.8-8-1.7-3.8-2.3-6.7-2.3-12.5 0-5.8 0.6-8.6 2.4-12.5 1.3-2.7 3.9-6.4 5.7-8.2 1.9-1.7 5.4-4.1 7.9-5.2 2.6-1.2 6.6-2 9.5-2zm-9.2 19.9c-1.5 2.2-2.3 4.9-2.3 7.3 0 2 0.8 5.3 1.8 7.3 0.9 2 2.9 4.3 4.5 5 1.5 0.8 4.2 1.4 6 1.4 1.7 0 4.7-0.9 6.5-2 1.7-1.1 3.9-3.6 4.7-5.5 0.8-1.9 1.5-4.7 1.5-6.2 0-1.6-1.2-4.7-2.7-7-1.6-2.4-3.8-4.7-5-5.3-1.3-0.5-3.5-1-5-1-1.6 0-3.9 0.6-5.2 1.3-1.4 0.7-3.5 2.8-4.8 4.7zm-109.1-35.5l6.7 22.2c3.6 12.3 6.9 21.7 7.2 21 0.3-0.6 3.5-10.8 13.4-43.7l7.5-0.1c4.1 0 7.7 0.3 8 0.6 0.3 0.2-4.5 15.9-21.8 69l-14.7 0.6-11.2-33.8c-6.2-18.6-11.2-34.4-11.2-35.1 0-1 2-1.2 16.1-0.7zm67.3 15.6c2.7-0.1 6.6 0.4 8.5 1 1.9 0.7 5.4 2.5 7.7 4.1 2.4 1.5 4.7 3.6 5.2 4.6 0.8 1.4-1.3 4.5-10.9 16.2-8.9 10.9-11.5 14.6-10.2 14.8 0.9 0.2 2.8 0.1 4.2-0.3 1.4-0.4 3.8-2.1 8.1-7l10 10-2.4 3c-1.3 1.6-4.8 4.2-7.8 5.8-4.3 2.2-6.7 2.7-11.9 2.7q-6.5 0-11-2.1c-2.5-1.1-6.2-3.7-8.3-5.7-2.1-2.1-4.6-6-5.7-8.9-1.1-2.9-2-7.4-2-10 0-2.7 0.7-7.2 1.5-10 0.9-3.2 3-6.9 5.2-9.4 2.1-2.3 5.1-4.8 6.6-5.7 1.5-0.8 4-1.8 5.5-2.3 1.5-0.4 4.9-0.8 7.7-0.8zm-9.8 19.4c-0.9 1.4-2 4.2-2.3 6.3-0.4 2-0.3 4.5 0.2 5.5 0.8 1.6 2 0.4 8.1-7.7l7.3-9.6c-5 0.1-7.6 0.7-9 1.5-1.4 0.8-3.3 2.6-4.3 4zm122.3-19.2c3.6 0.2 8.1 1.2 10 2.2 1.9 0.9 4.5 2.6 5.7 3.6 2.3 1.9 2.3 1.9 4.3-1.1 1.1-1.7 2.9-3 4-3 1.1 0 2.1 0.3 2.1 0.8 0.1 0.4 0.3 11.3 0.4 24.2 0.1 12.9 0 24.3-0.2 25.3-0.1 0.9-1.1 1.7-2.1 1.7-0.9 0-2.8-1.3-6.7-6l-5 3.3c-4.1 2.7-6.1 3.3-12 3.6-5.4 0.3-8.1-0.1-11.5-1.6-2.5-1.1-6.2-3.5-8.3-5.4-2.4-2.1-4.6-5.4-5.9-8.9-1.5-4.3-1.9-7.1-1.6-13 0.3-4.9 1.2-8.9 2.5-11.5 1.2-2.2 3.6-5.4 5.5-7.2 1.8-1.7 5.3-4.1 7.8-5.3 3.5-1.6 5.9-2 11-1.7zm-11.6 21.5c-1.1 2.4-1.4 5.2-1.1 8.2 0.4 3.5 1.3 5.2 4.1 7.8 2.6 2.3 4.6 3.2 7.1 3.2 1.9 0 4.9-0.7 6.5-1.5 1.6-0.8 3.9-3 5-4.7 1.1-1.9 2-5 2-7.3 0-2.2-0.9-5.5-2-7.2-1.1-1.8-3.4-4-5-4.8-1.6-0.8-4.2-1.5-5.7-1.5-1.6 0-4.3 0.9-6 2-1.8 1.1-4 3.7-4.9 5.8zm128.1-21.5c4 0.2 8.5 1.1 10.5 2.1 1.9 1 5.2 3.5 7.3 5.5 2.1 2 4.6 5.9 5.7 8.9 1.1 2.8 2 7.7 2 10.7 0 3-0.9 7.9-1.9 10.8-1.3 3.4-3.7 6.8-6.8 9.8-2.8 2.7-6.5 5.1-8.8 5.8-2.2 0.6-6.6 1.1-9.7 1.1-3.2 0-7-0.5-8.5-1.1-1.6-0.5-4.5-2.2-6.6-3.7-2.2-1.5-5.2-4.7-6.7-7.2-1.6-2.5-3.3-6.7-3.8-9.5-0.5-2.7-0.6-7.2-0.2-10 0.4-2.7 1.7-6.8 2.8-9 1.1-2.2 3.3-5.3 4.8-6.9 1.6-1.6 5.2-4 7.9-5.3 4.2-2 6.1-2.3 12-2zm-10.6 18.1c-2 2.3-2.4 3.9-2.4 9.3 0 6.2 0.2 6.6 3.8 9.9 3 2.7 4.5 3.4 8 3.4 2.7 0.1 5.2-0.6 7-2 1.5-1.1 3.4-3.4 4.2-5 0.8-1.6 1.5-4.4 1.5-6 0-1.6-0.7-4.6-1.5-6.5-0.8-1.9-3-4.4-4.7-5.5-1.8-1.1-4.7-2-6.3-1.9-1.6 0-4 0.4-5.1 0.8-1.2 0.4-3.3 2-4.5 3.5zm-46.4-17.3c3.6-0.1 6.5 0.6 10.4 2.6 3.5 1.8 6.4 4.3 8.1 6.8 1.5 2.2 3.3 5.8 3.9 8 0.6 2.2 1.1 11.1 1.1 35.5h-14v-32l-3.5-3.5c-2.5-2.5-4.4-3.5-6.6-3.5-2.1 0-4 0.9-8.9 6v33h-14v-26c0-24.1 0.1-26 1.8-26 0.9 0 2.7 1 3.9 2.3 2.2 2.2 2.3 2.2 5 0.3 1.5-1.1 3.9-2.3 5.3-2.7 1.4-0.4 4.8-0.8 7.5-0.8z"/>
</svg>