<svg version="1.2" xmlns="http://www.w3.org/2000/svg" viewBox="0 0 512 512" width="512" height="512">
	<title>vegan(1)</title>
	<style>
		.s0 { fill: #000000 } 
		.s1 { fill: #ff9800 } 
		.s2 { fill: #868686 } 
		.s3 { fill: #bcbcbc } 
		.s4 { fill: #cacaca } 
		.s5 { fill: #dcdcdc } 
		.s6 { fill: #bfbfbf } 
	</style>
	<g id="No">
		<path id="Path 0" class="s0" d="m222 4.2c-2.3 1.9-2.5 2.7-2.4 9.7 0.1 4.9 0.9 10 2.3 14.6 1.3 3.9 3.3 9 4.6 11.5 1.2 2.5 3.9 6.8 6 9.5 2.1 2.8 5.4 6.5 7.4 8.4 2 1.8 4.9 4.3 6.6 5.6 1.7 1.3 6.2 3.9 10 5.8 3.9 1.9 10.2 4.3 14.2 5.4l7.2 1.8c-0.8 7.8-1.3 10.6-1.5 11.3-0.3 0.8-1.7 0.3-4.6-1.7-2.4-1.5-6.3-3.9-8.8-5.3-2.5-1.3-7-3.4-10-4.6-3-1.2-8.2-2.9-11.5-3.8-3.3-0.8-10.7-1.8-16.5-2.1-5.8-0.3-13.7 0-17.5 0.5-3.8 0.6-7.9 1.4-9 1.7-1.6 0.5-2.4-0.2-3.9-3.7-1.1-2.4-3.5-6.8-5.5-9.8-1.9-3-6.4-8.4-10-12-3.6-3.6-9.8-8.6-13.6-11.1-3.8-2.5-9.5-5.6-12.5-6.8-3-1.2-8-2.9-11-3.7-4.1-1.2-11.9-1.8-30.5-2.2-24.6-0.5-25-0.5-27.3 1.6-2.2 2.2-2.2 2.7-2.2 25.2 0 17.4 0.4 24.6 1.6 29.8 0.8 3.7 2.7 9.6 4.1 13.2 1.4 3.6 4.9 10.1 7.7 14.4 3 4.7 8.2 10.8 12.6 14.8 4.1 3.8 7.3 7 7 7.2-0.3 0.1-3.2 1.9-6.5 3.8-3.3 2-8.6 6.2-11.7 9.5-3.1 3.2-6.5 6.9-7.6 8.3-1.1 1.4-3.6 5.4-5.5 9-2 3.6-4.5 9-5.7 12-1.2 3-3.3 9.1-4.5 13.5-1.3 4.4-3.1 12.5-4.2 18-1.4 7.9-1.8 14.9-1.8 33 0 14.6 0.5 25.9 1.4 31 0.7 4.4 2.2 10.9 3.3 14.5 1.1 3.6 3.3 9.1 4.9 12.3 2.1 4.1 2.6 5.8 1.7 6.2-0.7 0.2-3.5 0.9-6.3 1.6-2.7 0.6-6.7 2.3-8.7 3.7-2.2 1.5-4.9 4.9-6.3 7.7-1.5 3-2.5 6.7-2.5 9.2 0 2.4 0.7 6 1.6 8 0.8 2.1 2.7 5.1 4.2 6.6 1.5 1.6 4.4 3.7 6.5 4.8 3.6 1.8 7.9 1.9 159.9 1.6 150.1-0.2 156.5-0.3 161.3-2.1 2.7-1 7.2-3.3 10-5 2.7-1.8 7.8-6.1 11.3-9.7 3.5-3.5 7.6-8.7 9.2-11.4 1.5-2.8 3.4-6.9 4.2-9.3 0.7-2.3 1.5-4.2 1.8-4.2 0.3 0 3.5 3.1 7.2 6.8l6.6 6.7c7.2-7 9.1-9.3 9-9.7-0.2-0.4-3.6-4.1-7.6-8.2-3.9-4.2-7-8.2-6.8-8.9 0.2-0.6 3.7-1.8 7.7-2.5 4.1-0.7 8.1-1.7 8.9-2.2 1.3-0.8 1.3-1.6 0-7-1.5-6.1-1.5-6.2-4.5-5.5-1.6 0.4-4.7 1-6.7 1.4-2.3 0.3-3.8 0.2-3.8-0.4 0-0.6 1.6-3.4 3.5-6.3 1.9-2.8 3.4-5.4 3.2-5.5-0.1-0.2-2.3-1.8-5-3.5-2.6-1.8-5-3-5.5-2.8-0.4 0.2-2.9 3.4-5.6 7.2l-4.8 6.9c-5.5-7.8-7.1-10.4-7.1-11 0-0.6 1.2-3.7 2.7-7 1.6-3.3 4.2-9.4 5.8-13.5 1.7-4.1 4.1-10.7 5.4-14.5 1.4-3.8 3.1-9.7 3.9-13 0.7-3.3 1.8-8.3 2.4-11 0.6-2.8 1.6-10.6 2.2-17.5 0.6-6.9 0.8-15.9 0.5-20-0.4-4.1-1.1-10.2-1.7-13.5-0.6-3.3-2.2-9.4-3.6-13.5-1.4-4.1-4-10.4-5.7-14-1.8-3.6-4.6-8.5-6.3-11-1.6-2.5-5.4-7.2-8.4-10.4-3-3.2-8.1-8-11.4-10.5-3.3-2.5-9.6-6.4-14-8.6-4.4-2.3-11.8-5.2-16.5-6.5-7.4-2.1-10.5-2.5-24-2.4-12 0-16.9 0.4-21.5 1.8-3.3 1-9.4 3.2-13.5 4.9-4.1 1.7-9.8 4.5-12.5 6.4-2.8 1.8-5.6 3.3-6.3 3.3-0.9 0-1-1.4-0.6-5.3 0.3-2.8 1.5-8.4 2.6-12.2 1-3.8 2.6-8.7 3.4-10.8 0.8-2 2.4-5.8 3.6-8.5 1.2-2.6 4.2-7.9 6.7-11.7 2.5-3.9 5.7-8.3 7.1-9.9 1.4-1.6 3.5-3.8 4.8-5l2.2-2.1-9.5-9.6c-7 7.5-11.2 12.5-13.7 16.1-2.5 3.6-5.7 8.6-6.9 11.3-1.3 2.6-2.7 4.7-3.2 4.7-0.4 0-1-1-1.4-2.3-0.3-1.2-2.2-4.7-4.1-7.7-2-3-5.6-7.7-8.1-10.4-2.5-2.7-8-7.1-12.1-9.8-4.1-2.7-10.9-6-15-7.3-4.1-1.4-8.7-2.5-10.3-2.5-1.5 0-2.5-0.5-2.2-1 0.3-0.6-1.6-1-4.8-1-3.8 0.1-5.9 0.6-7.7 2.2z"/>
		<path id="Path 1" fill-rule="evenodd" class="s1" d="m20 431l1.9 6.8c1.1 3.7 3.7 12.4 5.8 19.5 2.1 7 4 12.7 4.3 12.7 0.3 0 2.2-5.7 4.3-12.7 2.1-7.1 4.7-15.8 7.7-26.3h7.5c4.1 0 7.5 0.2 7.5 0.5 0 0.3-4.5 14.4-20 62.5h-13.5l-9.7-29.2c-5.3-16.1-9.9-30.3-10.3-31.6-0.7-2.1-0.5-2.2 14.5-2.2zm109.5 14.7c2.2 0.3 5.3 1.2 7 2 1.7 0.9 3.8 2.3 4.8 3.2 1.8 1.5 2 1.4 4-1.1 1.2-1.5 3-2.8 4-2.8 1.6 0 1.7 1.8 1.7 23.3 0 22.6 0 23.3-2.4 28.2-1.3 2.8-4.2 6.3-6.3 7.9-2.1 1.7-5.3 3.6-7 4.3-1.8 0.7-5.8 1.3-14.3 1.3v-6.5c0-6.4 0-6.5 2.8-6.4 1.5 0.1 3.9 0.1 5.5 0 1.5-0.1 3.9-1.2 8.2-5l-7 0.6c-3.8 0.3-8.8 0-11-0.5-2.2-0.6-5.8-2.6-8-4.5-2.4-2-5-5.6-6.4-8.8-1.9-4.4-2.3-6.6-1.9-11.9 0.3-3.7 1.4-8.3 2.5-10.5 1.1-2.2 3.6-5.4 5.4-7.1 1.9-1.6 5-3.5 6.9-4.1 1.9-0.7 4.4-1.4 5.5-1.6 1.1-0.3 3.8-0.3 6 0zm-12.2 18.3c-0.7 1.4-1.3 4.4-1.3 6.8 0 3.5 0.6 4.8 3.5 7.7 1.9 1.9 4.5 3.6 5.8 3.6 1.2 0.1 3.1 0.1 4.2 0 1.1-0.1 3.5-1.8 5.3-3.7 2.5-2.7 3.2-4.3 3.2-7.4 0-2.2-0.6-5.2-1.4-6.7-0.7-1.6-3-3.6-5-4.5-2-1-4.2-1.8-4.8-1.8-0.7 0-2.9 0.8-4.8 1.8-1.9 0.9-4 2.8-4.7 4.2zm368.2-18.3c2.2 0.3 5.6 1.2 7.5 2 1.9 0.8 4.8 2.6 6.3 4.1 1.6 1.5 3.8 4.5 5 6.7 1.6 3 2.1 5.8 2.2 11.5 0 5.6-0.5 8.5-2 11.5-1.1 2.2-3.6 5.4-5.5 7.3-1.9 1.8-5.3 4-7.5 4.8-2.5 1-6.2 1.5-10.1 1.2-4.6-0.2-7.2-1-10.9-3.3-3.1-1.9-6-4.8-7.9-7.9-2.4-3.8-3.2-6.4-3.5-11-0.1-3.4 0.2-7.9 0.8-10.1 0.5-2.2 2.7-6 4.8-8.4 2.1-2.4 5.2-5.1 6.8-5.9 1.6-0.9 4.6-1.9 6.5-2.3 1.9-0.4 5.3-0.5 7.5-0.2zm-11.5 17c-1.4 1.9-2.1 4.3-2 7.6 0 3.9 0.5 5.3 3.3 8.1 1.7 1.9 4.1 3.6 5.2 3.7 1.1 0.1 3.1 0.1 4.3 0 1.3 0 3.9-1.7 5.8-3.6 2.7-2.8 3.4-4.3 3.4-7.5 0-2.2-0.7-5.4-1.5-7-0.8-1.7-3-3.7-5-4.5-1.9-0.8-4.3-1.5-5.2-1.4-1 0-2.8 0.4-4 0.9-1.2 0.4-3.1 2.1-4.3 3.7z"/>
		<path id="Path 2" class="s2" d="m108.3 83.5c0 3.8 0.2 5.2 0.4 3 0.2-2.2 0.2-5.3 0-7-0.2-1.7-0.4 0.2-0.4 4zm101.2 0.5c-3.3 0.4-8.3 1.5-11 2.3-2.8 0.8-8.5 3.2-12.9 5.3-4.3 2.2-10.8 6.4-14.5 9.5-3.6 3.1-8.4 8-10.7 11-2.3 3-5.1 7.2-6.3 9.4-1.1 2.2-2.1 4.2-2.1 4.5 0 0.3 1.4 0.9 3.2 1.3 1.8 0.4 6.7 2.4 10.8 4.5 4.1 2 10.2 5.7 13.5 8.1 3.3 2.4 9.4 7.8 13.5 12 4.1 4.2 10 11 13.1 15.1 3.1 4.1 8 11.2 10.8 15.8 2.8 4.5 7.5 13.3 10.5 19.4 3 6.2 6.9 15.6 8.6 20.8 1.7 5.2 3.8 12.2 4.5 15.5 0.8 3.3 1.5 11 1.5 17.3 0 6.1 0.2 11.2 0.5 11.2 0.3 0 7.1-1.3 15.2-3 8.2-1.6 26.9-5.5 41.8-8.5 14.9-3 36-7.4 47-9.7 15.7-3.3 22.2-4.2 30-4.2 8.7 0 10.8 0.4 16.5 2.8 3.6 1.5 7.3 2.9 8.3 2.9 1.3 0.2 2.8-2.1 5.8-8.8 2.2-4.9 5.6-13.5 7.4-19 1.8-5.5 4.4-14.7 5.6-20.5 1.9-8.7 2.3-13.7 2.3-29 0.1-15-0.3-19.8-1.8-25.5-1-3.8-3.2-10.2-4.9-14-1.7-3.8-4.7-9.5-6.6-12.5-1.9-3-5.8-7.9-8.5-10.9-2.8-2.9-7.8-7.3-11.1-9.6-3.3-2.4-8.9-5.7-12.5-7.3-3.6-1.6-9.6-3.7-13.5-4.7-4.7-1.2-10.8-1.8-18.5-1.8-8.8 0-13.4 0.5-19.5 2.2-4.4 1.2-11.4 4-15.5 6.2-4.1 2.3-9 5.3-10.9 6.7-1.8 1.5-5.9 4.6-9 7-4.5 3.5-6.2 4.2-8.3 3.8-1.6-0.3-6.6-3.6-11.2-7.3-4.6-3.8-12.1-8.7-16.7-10.9-4.6-2.3-11.3-4.9-14.9-5.7-3.6-0.9-10.3-1.8-15-2.1-4.7-0.2-11.2-0.1-14.5 0.4z"/>
		<path id="Path 3" class="s3" d="m128 218.7c-0.8 0.3-2.6 1.5-3.8 2.7-1.3 1.1-2.8 3-3.4 4.1-0.5 1.1 0.5 0.3 2.4-1.7 1.8-2.1 3.9-3.8 4.5-3.8 0.7 0 1.5-0.4 1.8-1 0.2-0.6 0.3-1 0.2-0.9-0.1 0-0.9 0.3-1.7 0.6zm240.3 43.1c0 3.7-0.5 9.7-1.1 13.5-0.7 3.7-1.4 6.7-1.7 6.7-0.3 0-3.2-0.8-6.6-1.7-6-1.8-6.1-1.9-5.5-4.8 0.4-1.6 1-6.3 1.3-10.3l0.8-7.3c-4.7 0.9-7.4 1.4-9 1.7-1.6 0.2-4.8 0.9-7 1.4-2.2 0.5-6.7 1.5-10 2.2-3.3 0.6-6.3 1.3-6.8 1.5-0.4 0.2-2.1 0.3-3.7 0.3-3 0-3 0-2.5 4.8 0.3 2.6 0.1 8.1-0.5 12.2-0.6 4.1-1.5 9-2 10.8l-1 3.2c-11.9-4.4-12.1-4.6-11.5-7.5 0.3-1.6 0.8-6.8 1.1-11.4l0.4-8.3c-5.8 0.8-10.6 1.8-14.5 2.7-3.9 0.8-8.4 1.8-10 2.1-1.6 0.2-4.1 0.7-5.5 0.9-2.3 0.5-2.5 1-2.7 7.3-0.1 3.7-0.8 9.2-1.4 12.2-0.6 3-1.5 6.1-2 6.8-0.7 0.9-1.8 0.8-4.9-0.8-2.2-1.1-4.7-2-5.5-2-1.1 0-1.4-0.8-1-3.2 0.3-1.8 0.8-6.4 1.2-10.3l0.6-7c-3.7 1-5.9 1.6-7.3 1.9-1.4 0.3-7.5 1.6-13.7 2.8l-11.2 2.3c-1 8.5-1.9 13.5-2.7 16.5-0.8 3-1.7 5.6-1.9 5.8-0.3 0.1-3.1-0.7-6.3-1.9l-5.7-2.1c2.1-10.3 2.4-13.9 2.1-14.5-0.3-0.7-1.2-1-1.9-0.6-0.6 0.3-2.6 0.8-4.2 1-1.7 0.2-4.8 0.8-7 1.3-2.2 0.5-6.7 1.5-10 2.2-3.3 0.6-6.3 1.3-6.8 1.5-0.4 0.2-1 0.3-1.5 0.3-0.4 0-1 2.6-1.4 5.7-0.5 3.2-1.3 7.4-1.9 9.3-0.7 1.9-1.4 3.6-1.5 3.8-0.2 0.1-3.1-0.8-6.4-2-5.2-2-6-2.6-5.5-4.3 0.3-1.1 0.9-3.8 1.3-5.9l0.7-3.9c-4.7 1-7.4 1.6-9 1.9-1.7 0.3-5.9 1.2-9.5 2-3.6 0.8-8.1 1.7-10 2-1.9 0.3-4.2 0.7-5 1-0.8 0.2-2.9 0.7-4.5 1-1.7 0.3-8.4 1.6-15 3-6.6 1.3-17.6 3.6-24.5 4.9-6.9 1.4-13.3 2.7-14.3 3-0.9 0.3-2.4 2-3.3 3.8-0.9 1.7-1.3 4.2-1 5.5 0.3 1.2 1.6 3.1 2.8 4.2 2.3 2 3.1 2 154.5 2h152.3c8.9-3.3 13-5.5 14.9-6.9 1.9-1.4 5.6-4.8 8.3-7.6 2.6-2.7 6-7.5 7.5-10.5 2.3-4.7 2.7-6.8 2.7-15 0.1-8.5-0.2-10.1-2.8-15.5-1.6-3.3-4.3-7.5-6-9.3-1.7-1.8-5.1-4.5-7.6-6-2.5-1.5-6.1-3.3-8-3.9-1.9-0.7-6.9-1.3-11.2-1.3h-7.6z"/>
		<path id="Path 4" class="s0" d="m336.6 44.1c-0.5 0.8-0.5 3.9-0.2 6.9l0.7 5.5c15 0.3 22.3 0.8 25.9 1.4 3.6 0.6 9.2 1.9 12.5 2.9 3.3 1.1 9.1 3.4 13 5.2 3.9 1.8 10.8 5.8 15.4 8.9 4.6 3.1 11.7 9.1 15.7 13.3 4.1 4.3 8.5 9.6 9.9 11.8 1.4 2.2 2.8 4 3.2 4 0.5 0 3-1.2 5.7-2.7 2.7-1.5 5-3 5.2-3.3 0.2-0.3-1.7-3.4-4.3-7-2.5-3.6-8-9.9-12.2-14.1-4.2-4.2-11.2-10.1-15.6-13.2-4.4-3-11.4-7.1-15.5-9-4.1-2-10-4.4-13-5.5-3-1.1-9.1-2.8-13.5-3.7-4.4-0.9-13.4-1.9-20-2.2-9.7-0.5-12.3-0.3-12.9 0.8zm108 70.5c-2.8 1.3-4.9 2.9-4.8 3.4 0.1 0.6 1.1 3 2.2 5.5 1.1 2.5 2.3 4.5 2.7 4.5 0.5 0 3-0.7 5.8-1.6 2.7-0.9 5.2-1.8 5.5-2 0.3-0.2-0.6-3.1-2-6.4-1.4-3.4-3-6-3.5-6-0.6 0.1-3.2 1.2-5.9 2.6z"/>
		<path id="Path 5" fill-rule="evenodd" class="s1" d="m203 355h14.5l23 39.7 0.4-39.7h13.1v64l-14.2-0.5-22.8-39-0.5 39h-13zm84 14.7c2 0.2 4.9 0.9 6.5 1.5 1.7 0.6 4.6 2.3 6.5 3.7 1.9 1.4 4.5 4.9 5.7 7.6 1.7 3.5 2.4 7 2.4 11.5 0.1 4.4-0.5 8-1.8 11-1.1 2.5-3.7 6.1-5.9 8.1-2.1 1.9-5.7 4.1-7.9 4.8-2.2 0.8-6.6 1.2-10 1-4.6-0.3-7.3-1.2-11-3.4-3.6-2.2-5.8-4.6-8-8.5-2.5-4.7-3-6.6-2.9-12.5 0-5 0.6-8.3 2.1-11.5 1.2-2.5 3.2-5.5 4.5-6.6 1.3-1.2 3.5-2.9 4.8-3.8 1.4-0.8 4.6-2 7-2.5 2.5-0.5 6.1-0.7 8-0.4zm-10.9 16.4c-1.2 1.3-2.4 4.2-2.7 6.4-0.6 3.2-0.2 4.8 1.7 7.9 1.4 2.3 3.8 4.5 5.7 5.3 2.4 0.9 4.2 1 6.7 0.3 2.1-0.6 4.4-2.2 5.5-4 1.3-1.9 2-4.7 2.1-7.7 0-2.7-0.7-5.8-1.5-7-0.9-1.3-3.1-3-5.1-3.8-1.9-0.8-4-1.5-4.7-1.4-0.7 0-2.2 0.4-3.4 0.8-1.2 0.4-3.1 1.9-4.3 3.2zm66.5 40.9c3.7 0 4.8 0.5 6.5 2.8 1.1 1.5 2 3.9 2 5.5-0.1 1.5-1.2 3.8-2.5 5.2-1.6 1.6-3.6 2.5-5.5 2.5-1.7 0-3.8-0.3-4.7-0.7-0.9-0.5-2.3-2-3-3.5-0.8-1.6-1.4-3.6-1.5-4.7 0-1 0.9-3 2.1-4.5 1.7-2.1 3-2.6 6.6-2.6zm-133.6 2h12v18h18v13h-18v6.3c0 3.4 0.5 7.7 1 9.5 0.6 2 2.2 3.8 4 4.7 1.7 0.8 5.3 1.5 13 1.5v12h-7.7c-7.1 0.1-8.2-0.2-12.7-3.2-3.2-2.1-5.8-4.9-7.3-7.8-1.9-3.8-2.3-6-2.3-23h-6v-13h6zm-125 16.7c2.5 0.3 5.9 1.2 7.5 2 1.7 0.9 4.3 2.7 5.8 4.2 1.5 1.4 2.8 3.2 2.7 3.9 0 0.6-4.7 6.8-10.5 13.7-5.7 6.9-10.5 12.7-10.5 13 0 0.3 1.5 0.2 3.3-0.1 1.8-0.4 4.7-2.1 9.7-6.9l4 4c2.3 2.2 4.1 4.4 4.1 5 0 0.6-1.5 2.4-3.3 4.2-1.8 1.8-5 3.9-7 4.7-2.1 0.9-5.9 1.6-8.5 1.6-2.6 0-7-0.8-9.7-1.7-3.4-1.2-6.2-3.2-8.8-6.3-2.1-2.5-4.3-6.1-4.8-8-0.5-1.9-1-6.2-1-9.5 0-4.7 0.6-7.2 2.8-11.5 1.8-3.4 4.3-6.5 6.8-8.2 2.2-1.5 6-3.1 8.4-3.7 2.5-0.5 6.6-0.7 9-0.4zm-11.4 15.9c-0.9 1.1-2 3.7-2.5 5.9-0.5 2.2-0.6 4.8-0.2 5.9 0.5 1.5 1.6 0.5 6.2-5.5 3-4.1 5.9-8 6.2-8.6q0.7-1.3-1.5-1.2c-1.3 0-3.2 0.4-4.4 0.8-1.2 0.5-2.9 1.7-3.8 2.7zm111.9-15.9c3.3 0.3 6.7 1.6 9.9 3.6 2.7 1.8 5.3 4 5.8 5 0.6 1.3-1.4 4.4-9.7 14.5-5.8 7-10.5 13-10.5 13.5 0 0.4 1.7 0.3 3.8-0.2 2.1-0.6 4.7-2.2 8.2-6.6l9.5 9.4-3 3.1c-1.6 1.7-5 4-7.5 5.2-3.6 1.7-5.8 2-11 1.6-4.5-0.3-7.9-1.2-11-3-2.4-1.4-5.7-4.3-7.1-6.4-1.5-2.2-3.2-5.7-3.9-7.9-0.7-2.3-1-6.4-0.7-9.5 0.2-3 1.4-7.3 2.5-9.5 1.1-2.2 3.5-5.4 5.3-7.1 1.9-1.6 5-3.5 6.9-4.1 2-0.7 4.4-1.4 5.5-1.6 1.1-0.3 4.3-0.3 7 0zm-13 18.3c-0.8 1.6-1.5 4.8-1.5 7 0 2.2 0.4 4 0.8 4 0.4-0.1 3.5-3.9 7-8.5 5.6-7.6 6-8.5 4-8.5-1.3 0.1-3.7 0.7-5.5 1.5-1.8 0.8-3.9 2.9-4.8 4.5zm98-18.3c2.2 0.2 6.3 1.8 14 6.5l1.8-2.6c0.9-1.4 2.6-2.6 3.7-2.6 2 0 2 0.7 2 23.5 0 22.8 0 23.5-2 23.5-1.1 0-2.8-1.2-5.5-5.1l-5.7 3c-4.5 2.4-7 3.1-11.5 3.1-3.4 0-7.4-0.8-9.8-1.9-2.2-1-5.3-3.1-6.8-4.7-1.6-1.6-3.6-4.3-4.4-5.9-0.8-1.6-1.7-5.2-2-8-0.3-2.7-0.3-7 0.1-9.5 0.3-2.5 1.9-6.5 3.5-9 1.7-2.5 4.8-5.6 7.3-7 2.4-1.3 5.9-2.7 7.8-3.1 2-0.4 5.3-0.5 7.5-0.2zm-11.5 17c-1.8 2.3-2.1 3.9-1.8 8.5 0.2 4 0.9 6.3 2.3 7.8 1.1 1.1 3.4 2.4 5 2.9 1.9 0.5 4.3 0.4 6.5-0.3 2.1-0.7 4.4-2.5 5.8-4.6 1.4-2.1 2.3-5 2.3-7.2-0.1-2.9-0.9-4.7-3.3-7.3-2.2-2.4-4.4-3.7-6.8-4-1.9-0.3-4.5-0.1-5.7 0.4-1.2 0.5-3.1 2.2-4.3 3.8zm120.5-17.6c0.6-0.1 3.1 0.5 5.5 1.2 2.5 0.7 6.1 2.4 11.3 6.2l1.9-2.7c1-1.6 2.7-2.8 3.8-2.8 2 0 2 0.7 2 23.5 0 22.8 0 23.5-2 23.5-1.1 0-2.8-1.2-5.5-5.1l-5.7 3c-4.5 2.4-7 3.1-11.5 3.1-4.1 0-7.2-0.7-10.8-2.4-2.9-1.5-6.1-4-7.7-6.3-1.4-2.1-3.1-5-3.7-6.5-0.6-1.6-1.1-5.8-1-9.5 0-4.5 0.6-8.2 1.8-10.8 1-2.2 2.9-5.2 4.2-6.6 1.4-1.4 4-3.4 5.9-4.4 2-1 5.1-2.2 7-2.6 2-0.4 4-0.7 4.5-0.8zm-8.5 17.6c-1.5 2-2 4.3-2 8.1 0 3.9 0.6 5.8 2.3 7.7 1.2 1.4 3.6 2.9 5.2 3.4 1.9 0.5 4.3 0.4 6.5-0.3 2.1-0.7 4.4-2.5 5.8-4.6 1.4-2.1 2.3-5 2.3-7.2-0.1-2.9-0.9-4.7-3.3-7.3-2.2-2.4-4.4-3.7-6.8-4-1.9-0.3-4.5-0.1-5.7 0.4-1.2 0.5-3.1 2.2-4.3 3.8zm63.5-16.4c2.8 0.2 6.4 1.1 8 2 1.7 0.8 4.3 2.8 5.9 4.3 1.6 1.6 3.6 4.5 4.5 6.4 1.1 2.6 1.6 7.7 2.1 35h-13v-14c0-9.2-0.4-14.9-1.2-16.5-0.7-1.4-2.4-3-3.8-3.6-1.3-0.6-3.6-0.8-5-0.5-1.3 0.3-3.4 1.2-4.5 2-1.8 1.3-2 2.7-2.5 32.6h-13v-23.5c0-21.7 0.2-23.5 1.8-23.5 0.9 0 2.6 0.9 3.7 2 2 1.9 2.1 1.9 7-0.6 4-2 6-2.5 10-2.1zm-132.5 0.7c1.1 0 2.8 1.1 5.5 5l5-2.5c4-2 6.5-2.5 19.5-2.5v13h-7c-6.3 0-7.2 0.3-9.5 2.7-2.5 2.7-2.5 3.2-2.5 31.3h-13v-23.5c0-22.8 0.1-23.5 2-23.5zm35 0h13v47h-13z"/>
		<path id="Path 6" class="s4" d="m135.6 49.8c-0.2 0.4 2.7 0.7 6.4 0.7 3.7 0 6.6-0.3 6.4-0.7-0.2-0.5-3.1-0.8-6.4-0.8-3.2 0-6.1 0.3-6.4 0.8zm-3.6 89.2c0 0.6-0.4 0.8-1 0.5-0.6-0.3-3.1 0-5.7 0.6-2.6 0.6-4.6 1.6-4.5 2.3 0.2 0.6-0.1 0.8-0.5 0.4-0.4-0.4-2-0.1-3.5 0.7-1.6 0.8-2.9 1.8-3 2.3-0.1 0.4-1.5 1.3-3 2-1.5 0.6-2.6 1.6-2.3 2.2 0.3 0.6-0.2 1-1 1-0.8 0-1.5 0.7-1.5 1.5 0 0.8-0.4 1.3-1 1-0.5-0.3-1 0.1-1 0.8-0.1 0.6-1.6 2.9-3.5 5-1.9 2-3.5 4.1-3.5 4.7 0 0.6-0.7 1.7-1.5 2.5-0.8 0.8-1.3 1.9-1 2.5 0.3 0.6 0.1 1-0.5 1-0.5 0-0.8 0.4-0.5 1 0.3 0.6 0 1.1-0.5 1.3-0.6 0.1-1.3 1.1-1.5 2.2-0.2 1.1-0.4 2.1-0.4 2.3-0.1 0.1-0.2 0.5-0.4 0.9-0.1 0.5-0.8 1.7-1.4 2.8-0.6 1.1-2.1 5.4-3.3 9.5-1.2 4.1-2.3 9.4-2.3 11.6-0.1 2.3-0.5 4-0.9 3.8-0.5-0.2-0.8 1.1-0.8 2.9 0 1.7-0.3 5.7-0.7 8.7-0.4 3-0.8 11.8-0.8 19.5 0.1 7.7 0.4 16.5 0.8 19.5 0.4 3 0.7 7 0.7 8.8 0 1.7 0.3 3 0.8 2.8 0.4-0.2 0.8 1.6 1 4 0.1 2.4 0.7 5.4 1.4 6.7 0.7 1.2 1.2 2.6 1.3 3.2 0 0.6 0.7 2.5 1.5 4.3 0.8 1.8 1.8 3.3 2.3 3.2 0.4 0 0.5 0.4 0.2 1-0.3 0.6 0.2 1.7 1 2.5 0.8 0.8 1.5 2.2 1.5 3 0 1.1 0.9 1.4 3.3 1.1 1.7-0.2 4.8-0.7 6.7-1 1.9-0.3 3.8-0.9 4.3-1.4 0.4-0.4-0.3-1.9-1.5-3.3-1.3-1.5-2.5-3.3-2.6-4-0.2-0.8-0.9-1.7-1.5-2.1-0.7-0.4-0.9-0.8-0.4-0.8 0.4 0 0-1-0.8-2.2-0.8-1.3-1.7-3.7-2.1-5.3-0.3-1.6-0.8-3.4-1.2-4-0.4-0.6-0.5-1.8-0.4-2.7 0.1-1-0.1-1.6-0.5-1.4-0.5 0.2-0.7-4.6-0.6-10.7 0.1-6.2 0.4-12.3 0.6-13.7 0.2-1.4 0.9-3.7 1.6-5.3 0.6-1.5 1.3-3.8 1.6-5.2 0.3-1.4 1.2-3.2 2-4 0.8-0.8 1.8-2.5 2.2-3.8 0.3-1.2 2-3.7 3.7-5.5 1.7-1.9 3.1-3.9 3.1-4.5 0.1-0.7 0.6-1.1 1.3-1 0.7 0.2 1-0.1 0.7-0.7-0.3-0.6 0.3-1.6 1.2-2.3 1.4-1 1.6-1 0.9 0.3-0.4 0.8 0.5 0 2.1-1.7 1.5-1.8 3.1-3.3 3.6-3.3 0.4 0 3.9-1.8 7.7-4 3.8-2.2 7.1-3.8 7.3-3.5 0.1 0.3 1.5 0 3.2-0.6 1.7-0.7 3.3-1.2 3.8-1.1 0.4 0.1 1.3-0.2 2-0.6 0.6-0.5 5.7-0.8 11.2-0.7 5.5 0.1 10.7 0.5 11.5 0.8 0.8 0.4 2.9 0.9 4.5 1.2 1.7 0.3 6.9 2.4 11.7 4.8 4.7 2.3 8.5 4.5 8.2 4.9-0.2 0.5-0.1 0.8 0.4 0.8 0.4-0.1 1.9 1.1 3.5 2.5 1.5 1.4 3.1 2.5 3.7 2.5 0.6 0 0.8 0.3 0.6 0.7-0.3 0.5 1.4 2.8 3.7 5.3 2.2 2.5 4 4.6 3.9 4.7-0.1 0.2 0.4 1.7 1.1 3.3 0.6 1.7 1.5 2.7 1.9 2.3 0.3-0.4 1 0.5 1.4 2.2 0.4 1.7 0.9 3.3 1.1 3.7 0.2 0.5 0.3 0.9 0.4 1 0 0.2 0.2 1.2 0.4 2.3 0.2 1.1 0.8 3.6 1.2 5.5 0.5 1.9 0.9 7.1 0.8 11.5-0.1 4.4-0.5 9.9-0.9 12.2-0.5 3.4-0.3 4.3 0.9 4.3 0.8 0 1.5-0.3 1.5-0.8 0-0.4 2.1-0.8 4.8-1 2.6-0.1 5.1-0.7 5.7-1.3 0.6-0.6 0.9-6.1 0.9-12.7-0.1-6.4-0.2-12.9-0.3-14.5 0-1.5-0.4-2.5-0.8-2.3-0.5 0.2-0.9-1.1-1-3-0.2-1.9-0.8-4.4-1.5-5.7-0.7-1.2-1.1-2.8-1-3.5 0.1-0.6-0.1-1-0.5-0.8-0.5 0.2-0.8-0.6-0.9-1.7-0.1-1.2-1.3-4.6-2.8-7.5-1.4-2.8-2.3-5.4-1.9-5.7 0.3-0.3 0.1-0.5-0.5-0.5-0.7 0-1-0.4-0.7-1 0.3-0.6 0.1-1-0.5-1-0.6 0-0.9-0.3-0.8-0.8 0.1-0.4-0.1-1.7-0.5-3-0.4-1.2-1.1-2.2-1.7-2.2-0.6 0-0.8-0.3-0.6-0.8 0.3-0.4-1.2-3.7-3.2-7.5-2-3.7-4-6.4-4.5-6-0.4 0.5-0.7-0.2-0.7-1.5 0-1.2-0.7-2.4-1.5-2.7-0.8-0.3-1.3-0.9-1-1.5 0.3-0.6-0.3-1.4-1.2-2-1-0.5-1.4-0.9-0.8-0.9 0.6 0-0.8-2.2-3-4.8-2.1-2.6-4.8-5.6-6-6.6-1.1-1-1.6-1.7-1-1.7 0.6 0-0.6-1.5-2.5-3.4-1.9-2-3.9-3.2-4.5-2.9-0.6 0.3-0.7 0.2-0.2-0.3 0.4-0.5-0.5-2.1-2-3.7-1.6-1.5-3.1-2.7-3.5-2.7-0.5 0-2.1-1.3-3.8-3-1.6-1.7-3.7-3-4.5-3-0.8 0-1.6-0.4-1.7-0.8-0.2-0.4-2-1.8-4-3-2.1-1.2-4.3-1.9-5-1.5-0.8 0.5-1 0.4-0.6-0.2 0.4-0.6-0.9-1.6-3-2.4-2-0.7-5.2-1.4-6.9-1.5-1.8 0-3.3-0.4-3.3-0.9 0-0.4-2.7-0.7-6-0.7-3.3 0-6 0.4-6 1z"/>
		<path id="Path 7" class="s5" d="m233.1 18.4c0 0.9 0.4 2.6 1 3.9 0.7 1.2 1.4 3.3 1.6 4.7 0.3 1.4 1 3.4 1.6 4.5 0.6 1.1 1.1 2.3 1.2 2.7 0 0.4 0.8 1.6 1.8 2.8 0.9 1.1 1.7 2.5 1.7 3 0 0.5 0.8 1.4 1.8 2 0.9 0.5 1.4 1 1 1-0.5 0 0.1 0.9 1.2 2 1.1 1.1 2.4 2 3 2 0.6 0 1.3 0.6 1.8 1.2 0.5 0.9 0.3 1-0.8 0.3-1.3-0.7-1.3-0.6-0.2 0.8 0.6 0.9 1.6 1.5 2.2 1.2 0.6-0.3 1.4 0.4 2 1.5 0.6 1.1 1.4 1.8 2 1.5 0.6-0.3 1 0 1 0.5 0 0.5 0.7 1 1.5 1 0.8 0 1.5 0.5 1.5 1 0 0.5 1.2 1.3 2.8 1.7 1.5 0.3 2.9 1 3.2 1.4 0.3 0.5 2 1 3.7 1.1 1.8 0.2 3.3 0.6 3.3 1.1 0 0.4 1.4 0.7 3 0.7h3c-1.6-6.6-3.3-11-4.7-14-1.5-3-3.3-6.1-4-6.7-0.7-0.7-1.3-1.9-1.3-2.5 0-0.7-3.3-4.4-7.3-8.1-4-3.7-7.3-6.5-7.4-6.2-0.2 0.3-2-0.6-4-2-2.1-1.4-4.5-2.6-5.3-2.6-0.8-0.1-1.8-0.1-2.2 0-0.5 0-0.8-0.3-0.8-0.9 0-0.5-0.8-1-1.7-0.9-1 0-3-0.3-4.4-0.7-2-0.5-2.6-0.2-2.8 1zm-137.2 31.7c-0.2 7.9-0.3 16-0.2 17.9 0 1.9 0.3 5.3 0.7 7.5 0.4 2.2 1.5 6.7 2.6 10 1 3.3 2.6 6.6 3.5 7.3 0.8 0.6 1.3 1.7 1 2.2-0.3 0.6 0.2 1.2 1 1.5 0.8 0.3 1.3 0.8 1 1.3-0.2 0.4 0.4 1.7 1.5 3 1.1 1.2 2 2.4 2 2.7 0 0.3 3.3 3.8 7.2 7.8 4 4 8.4 7.7 9.8 8.2 1.4 0.4 2.7 1.1 3 1.5 0.3 0.5 1.2 1 2 1.2 0.8 0.1 2 0.9 2.7 1.6 0.7 0.6 2 1.2 2.8 1.2 0.8 0 1.5-0.6 1.5-1.2 0-0.7 2.1-4.9 4.7-9.3 2.5-4.4 4.9-8.2 5.2-8.5 0.3-0.3 1.3-1.3 2.1-2.3 1.4-1.7 1-2.3-4.5-7.8l-6-5.9h-31.5v-13.5c11.2 0.5 15.2 0.3 16 0 1.1-0.4-1.5-3.6-9.3-11.3l-10.8-10.7c7-7.4 9.3-9.5 9.6-9.5 0.3 0 5.1 4.6 10.7 10.3l10.3 10.2 1-16h13l1 31.5 12 11.2c2.8-3.6 3.6-4.2 3.6-3.7-0.1 0.6 0.2 0.5 0.7-0.1 0.4-0.6 2.7-2.4 5.2-3.9 2.5-1.6 5.1-3.4 5.7-4.2 0.7-0.7 1.7-1.1 2.3-0.8 0.6 0.3 1.2 0.1 1.5-0.5 0.3-0.5 0.9-0.8 1.5-0.5 0.6 0.3 0.8-0.7 0.3-2.7-0.3-1.8-0.9-3.5-1.2-3.8-0.3-0.3-1.5-2.3-2.6-4.5-1-2.2-5.7-7.7-10.2-12.2-4.6-4.6-8.7-8.1-9.3-7.8-0.6 0.3-1 0.2-1-0.2 0-0.5-2.3-2-5.2-3.5-2.9-1.5-7.8-3.5-10.8-4.4-3-0.9-7.1-1.8-9-2.1-1.9-0.2-11-0.7-20.1-1l-16.6-0.6z"/>
		<path id="Path 8" class="s6" d="m95.4 50.5c0 7.7 0.2 10.6 0.3 6.5 0.2-4.1 0.2-10.4 0-14-0.2-3.6-0.3-0.2-0.3 7.5zm52.1 160.4c-0.2 0.3-1.4 0.5-2.7 0.5-1.2-0.1-3.3 0.5-4.6 1.2-1.2 0.8-2.2 1.2-2.2 0.9 0-0.3-1.7 0.4-3.8 1.4-2 1.1-4 2.7-4.5 3.5-0.4 0.9-1.1 1.6-1.6 1.6-0.6 0-3.2 2.2-6 5-2.7 2.7-4.8 5-4.5 5 0.2 0-0.5 0.9-1.6 2-1.1 1.1-2.5 3.1-3 4.5-0.6 1.4-0.7 3.1-0.3 3.7q0.8 1.3-0.5 0.5-1.2-0.7-1.2 1.3c0 1.1-0.1 2.3-0.3 2.7-0.1 0.5-0.6 1.4-1 2-0.4 0.7-0.6 5.4-0.5 10.4 0.2 5 0.6 9.3 1 9.5 0.5 0.2 0.6 1.1 0.3 1.9-0.3 0.8-0.1 1.5 0.5 1.5 0.6 0 0.7 0.8 0.3 1.7-0.5 1.3-0.4 1.6 0.5 1q1.2-0.7 0.7 0.8c-0.3 0.8-0.1 1.7 0.5 2 0.5 0.3 0.8 0.9 0.5 1.5-0.3 0.6 0.2 1.2 1 1.5 0.8 0.3 1.3 0.9 1 1.5-0.3 0.6 1.3 3.2 3.5 6 3.6 4.5 4.3 5 7.2 4.6 1.8-0.3 4.6-0.7 6.3-1.1 1.6-0.3 4.3-0.8 6-1.1 1.6-0.4 3.4-0.9 4-1.2 0.6-0.3 2.3-0.7 4-0.8 1.6-0.2 3.7-0.4 4.5-0.5 0.8-0.1 1.9-0.5 2.5-0.9 0.6-0.4 1.8-0.6 2.7-0.4 1 0.2 1.8-0.2 1.8-0.9 0-0.6 0.3-0.9 0.7-0.5 0.4 0.4 1.6 0.3 2.5-0.2 1.4-0.8 1.6-0.7 1 0.2-0.5 0.9-0.2 1 1.3 0.5 1.1-0.5 4-1.2 6.5-1.7 2.5-0.5 7.4-1.5 11-2.3 3.6-0.9 9-2 12-2.6l5.5-1.1c3.2-10.2 3.8-15.3 3.8-20 0-4.1-0.6-8.8-1.3-10.5-0.7-1.7-1.3-3.3-1.2-3.8 0.1-0.4-0.9-2.8-2.2-5.5-1.3-2.6-4.2-7.1-6.5-10-2.3-2.8-4.4-5-4.9-4.8-0.4 0.2-1.3-0.2-2-1-0.6-0.8-0.9-1.7-0.5-2 0.5-0.4 0.1-0.5-0.7-0.2-0.8 0.3-1.9-0.1-2.5-0.8-0.6-0.8-1.9-1.5-3-1.7-1.1-0.1-2-0.6-2-1.1 0-0.5-2-1.5-4.5-2.2-2.5-0.8-5.1-1.2-5.8-0.9-0.6 0.3-1.2 0-1.3-0.5-0.1-0.6-3.4-1-8.1-0.9-4.3 0.1-8.1 0.4-8.3 0.8z"/>
	</g>
</svg>